<!DOCTYPE svg PUBLIC "-//W3C//DTD SVG 1.1//EN" "http://www.w3.org/Graphics/SVG/1.1/DTD/svg11.dtd">
<!-- Uploaded to: SVG Repo, www.svgrepo.com, Transformed by: SVG Repo Mixer Tools -->
<svg width="800px" height="800px" viewBox="0 0 512 512" id="Layer_1" version="1.1" xml:space="preserve" xmlns="http://www.w3.org/2000/svg" xmlns:xlink="http://www.w3.org/1999/xlink" fill="#14aadb">
<g id="SVGRepo_bgCarrier" stroke-width="0"/>
<g id="SVGRepo_tracerCarrier" stroke-linecap="round" stroke-linejoin="round"/>
<g id="SVGRepo_iconCarrier"> <style type="text/css"> .st0{fill:#24b2d6;} </style> <g> <path class="st0" d="M186.6,172.3c0-25-12.1-48.6-32.3-63.3c-4.2-3-8.7-5.6-13.3-7.8c-5.9-2.7-12.1-4.6-18.4-5.8 c-9.4-1.7-19.6-1.6-28.9,0.2c-5.9,1.1-11.8,3-17.3,5.5c-2.2,1-4.5,2.2-6.7,3.5c-17.3,10-29.9,26-35.7,45 c-2.2,7.3-3.3,14.9-3.3,22.6c0,1.5,0,2.9,0.1,4.2c1.5,29.3,19.2,55,46,67c10.1,4.5,20.8,6.8,31.9,6.8c11.1,0,21.9-2.3,31.9-6.8 c3.3-1.5,6.5-3.2,9.6-5.1c8.6-5.4,19.9-4,26.8,3.4c12.4,13.3,24.4,28.5,35.8,45.3C195.4,374.2,169.9,444,139,489 c-1.5,2.1-1.6,4.9-0.4,7.2c1.2,2.3,3.6,3.7,6.2,3.7h211.6c2.6,0,5-1.4,6.2-3.7c1.2-2.3,1-5.1-0.4-7.2 c-20.3-29.7-38.2-69.5-53-118.3c13.4-20.3,27.6-38.7,42.3-54.8c1.5-1.7,4.2-1.9,6.1-0.5c4.3,3.1,9,5.8,13.9,8 c10.1,4.5,20.8,6.8,31.9,6.8c11.1,0,21.9-2.3,31.9-6.8c28-12.6,46.1-40.5,46.1-71.2c0-25-12.1-48.6-32.3-63.3c0,0,0,0,0,0 c-4.2-3-8.7-5.6-13.3-7.8c-5.9-2.7-12.1-4.6-18.4-5.8c-9.4-1.7-19.6-1.6-28.9,0.2c-5.9,1.1-11.8,3-17.3,5.5c-2.2,1-4.5,2.2-6.7,3.5 c-17.3,10-29.9,26-35.7,45c-2.2,7.3-3.3,14.9-3.3,22.6c0,1.5,0,2.9,0.1,4.2c0.3,6.4,1.5,12.8,3.3,18.8c0.6,2.1-0.3,4.3-2.3,5.3 c-13.8,7-25.8,14.8-35,21.3c-12-56.1-17.9-106.8-20.3-132.9c-0.2-2.1,1.1-4,3-4.6c2.8-0.9,5.6-2,8.3-3.2 c28-12.6,46.1-40.5,46.1-71.2c0-25-12.1-48.6-32.3-63.3c-4.2-3-8.7-5.6-13.3-7.8c-5.9-2.7-12.1-4.6-18.4-5.8 c-9.4-1.7-19.6-1.6-28.9,0.2c-5.9,1.1-11.8,3-17.3,5.5c-2.2,1-4.5,2.2-6.7,3.5c-17.3,10-29.9,26-35.7,45 c-2.2,7.3-3.3,14.9-3.3,22.6c0,1.5,0,2.9,0.1,4.2c1.5,29.3,19.2,55,46,67c2.7,1.2,5.5,2.3,8.3,3.2c1.9,0.6,3.2,2.5,3,4.6 c-1.2,12.8-3.3,32.1-6.5,55.1c-8.8-5.7-17.7-10.7-26.5-15c-8.5-4.1-13.3-13.4-11.6-22.6C186.1,181.9,186.6,177.1,186.6,172.3z M190.8,221.8c14.1,6.7,26.2,14.6,33.8,20.1c2,1.4,4.6,1.7,6.8,0.7c2.2-0.9,3.8-3,4.2-5.4c4.3-28.2,6.9-52,8.3-67 c0.8-8.6-4.5-16.7-12.7-19.3c-2.3-0.7-4.6-1.6-6.8-2.6c-22-9.9-36.5-31-37.7-55c-0.1-1.1-0.1-2.2-0.1-3.4c0-6.3,0.9-12.6,2.7-18.5 c4.7-15.6,15.1-28.7,29.3-36.9c1.8-1,3.7-2,5.5-2.8c4.5-2.1,9.3-3.6,14.2-4.5c7.7-1.5,16-1.6,23.8-0.2c5.2,0.9,10.3,2.5,15.1,4.7 c3.8,1.7,7.5,3.9,10.9,6.4c16.6,12,26.6,31.4,26.6,51.9c0,25.2-14.9,48.1-37.8,58.4c-2.2,1-4.5,1.9-6.8,2.6 c-8.2,2.6-13.5,10.7-12.7,19.3c2.6,28.1,9.1,84.3,22.9,145.2c0.5,2.3,2.2,4.2,4.5,5c2.2,0.8,4.8,0.4,6.6-1 c9.2-7,23.8-17.3,41.6-26.4c8-4.1,12-13.3,9.3-21.9c-1.5-5-2.5-10.2-2.7-15.5c-0.1-1.1-0.1-2.2-0.1-3.4c0-6.3,0.9-12.6,2.7-18.5 c4.7-15.6,15.1-28.7,29.3-36.9c1.8-1,3.6-2,5.5-2.8c4.5-2.1,9.3-3.6,14.2-4.5c7.7-1.5,16-1.6,23.8-0.2c5.2,0.9,10.3,2.5,15.1,4.7 c3.8,1.7,7.5,3.9,10.9,6.4c16.6,12,26.6,31.4,26.6,51.9c0,25.2-14.9,48.1-37.8,58.4c-8.2,3.7-17,5.6-26.2,5.6 c-9.1,0-18-1.9-26.2-5.6c-4-1.8-7.8-4-11.4-6.6c-7.7-5.6-18.3-4.6-24.7,2.4c-15.9,17.4-31.2,37.3-45.5,59.3 c-1.1,1.7-1.4,3.9-0.8,5.8c13.7,45.9,30,84.3,48.7,114.3H157.7c29.4-47.4,52.7-114.2,69.3-199c0.4-1.8,0-3.7-1.1-5.2 c-12.3-18.3-25.3-35-38.8-49.5c-11.5-12.4-30.2-14.8-44.5-5.8c-2.5,1.6-5.2,3-7.9,4.2c-8.2,3.7-17,5.6-26.2,5.6 c-9.1,0-18-1.9-26.2-5.6c-22-9.9-36.5-31-37.7-55c-0.1-1.1-0.1-2.2-0.1-3.4c0-6.3,0.9-12.6,2.7-18.5c4.7-15.6,15.1-28.7,29.3-36.9 c1.8-1.1,3.7-2,5.5-2.8c4.5-2.1,9.3-3.6,14.2-4.5c7.7-1.5,16-1.6,23.8-0.2c5.2,0.9,10.3,2.5,15.1,4.7c3.8,1.7,7.5,3.9,10.9,6.4 c16.6,12,26.6,31.4,26.6,51.9c0,4-0.4,7.9-1.1,11.8C168.6,199.5,176.6,215,190.8,221.8z"/> <path class="st0" d="M241.3,139c0.3,0,0.5,0.1,0.8,0.1c0.2,0,0.4,0.1,0.6,0.1c0.4,0.1,0.7,0.1,1.1,0.2c0,0,0.1,0,0.1,0 c0.5,0.1,1.1,0.1,1.6,0.2c0.4,0,0.7,0.1,1.1,0.1c0.2,0,0.4,0,0.7,0.1c1.1,0.1,2.3,0.1,3.5,0.1c27.5,0,49.8-22.4,49.8-49.9 c0-7.3-1.5-14.3-4.6-20.9c-0.8-1.8-1.7-3.5-2.7-5.1c0-0.1-0.1-0.1-0.1-0.2c-6.7-10.8-17.1-18.6-29.3-21.9 c-4.3-1.2-8.7-1.8-13.2-1.8c-17.4,0-33.3,8.9-42.4,23.7c0,0.1-0.1,0.1-0.1,0.2c-0.7,1.1-1.4,2.3-2,3.6c-3.5,7-5.3,14.5-5.3,22.4 c0,1.5,0.1,2.9,0.2,4.1c0.1,1.7,0.4,3.3,0.7,4.9c0.1,0.7,0.3,1.4,0.4,2.1c0.2,0.9,0.4,1.8,0.7,2.6c3.4,11.8,11.1,22.2,21.8,28.7 c1,0.6,2,1.2,3,1.7c0,0,0.1,0,0.1,0.1c1,0.5,2,1,3,1.4c0,0,0.1,0,0.1,0c0.5,0.2,1,0.4,1.5,0.6c0,0,0.1,0,0.1,0.1 c1,0.4,2,0.8,3.1,1.1c0,0,0.1,0,0.1,0c0.5,0.2,1,0.3,1.5,0.5c0.1,0,0.1,0,0.2,0.1c0.5,0.1,1,0.3,1.5,0.4c0.3,0.1,0.6,0.1,0.9,0.2 c0.3,0.1,0.5,0.1,0.8,0.2C240.7,138.9,241,138.9,241.3,139z M218.6,73.9c0.5-0.9,0.9-1.8,1.5-2.6c0.1-0.1,0.1-0.2,0.2-0.3 c6.6-10.6,18-16.9,30.4-16.9c3.2,0,6.4,0.4,9.5,1.3c8.7,2.4,16.1,7.9,20.9,15.6c0,0.1,0.1,0.2,0.2,0.3c0.7,1.1,1.4,2.4,2,3.7 c2.2,4.7,3.3,9.7,3.3,15c0,19.8-16.1,35.9-35.8,35.9c-0.8,0-1.7,0-2.5-0.1c-4.9-0.3-9.7-1.7-14.1-4c-0.7-0.4-1.4-0.8-2.1-1.2 c0,0,0,0,0,0c-9.7-6-16.1-16.3-17-27.7c-0.1-0.9-0.1-1.8-0.1-2.9C214.8,84.4,216,79,218.6,73.9z"/> <path class="st0" d="M359.5,275.9c2.7,4.9,6.1,9.3,10.2,13.1c2.4,2.2,4.9,4.1,7.7,5.8c7.8,4.8,16.8,7.4,26.1,7.4 c27.5,0,49.8-22.4,49.8-49.9c0-7.3-1.5-14.3-4.6-20.9c-0.8-1.8-1.7-3.5-2.7-5.1c0-0.1-0.1-0.1-0.1-0.2 c-6.7-10.8-17.1-18.6-29.3-21.9c-4.3-1.2-8.7-1.8-13.2-1.8c-17.4,0-33.3,8.9-42.4,23.7c0,0.1-0.1,0.1-0.1,0.2 c-0.7,1.1-1.4,2.3-2,3.6c-3.5,7-5.3,14.5-5.3,22.4c0,1.5,0.1,2.9,0.2,4.1C354.3,263.3,356.3,269.9,359.5,275.9z M371.4,236.2 c0.5-0.9,0.9-1.8,1.5-2.6c0.1-0.1,0.1-0.2,0.2-0.3c6.6-10.6,18-16.9,30.4-16.9c3.2,0,6.4,0.4,9.5,1.3c8.7,2.4,16.1,7.9,20.9,15.6 c0,0.1,0.1,0.2,0.2,0.3c0.7,1.1,1.4,2.4,2,3.7c2.2,4.7,3.3,9.7,3.3,15c0,19.8-16.1,35.9-35.8,35.9c-6.6,0-13.1-1.8-18.7-5.3 c-2-1.2-3.8-2.6-5.5-4.2c-3-2.7-5.4-5.9-7.3-9.4c-2.3-4.4-3.7-9.1-4.1-14.1c-0.1-0.9-0.1-1.8-0.1-2.9 C367.6,246.7,368.9,241.2,371.4,236.2z"/> <path class="st0" d="M151.1,146.3c0-0.1-0.1-0.1-0.1-0.2c-6.7-10.8-17.1-18.6-29.3-21.9c-4.3-1.2-8.7-1.8-13.2-1.8 c-17.4,0-33.3,8.9-42.4,23.7c0,0.1-0.1,0.1-0.1,0.2c-0.7,1.1-1.4,2.3-2,3.6c-3.5,7-5.3,14.5-5.3,22.4c0,1.5,0.1,2.9,0.2,4.1 c1.3,15.7,10.1,30.1,23.6,38.4c7.8,4.8,16.8,7.4,26.1,7.4c27.5,0,49.8-22.4,49.8-49.9c0-7.3-1.5-14.3-4.6-20.9 C153,149.6,152.1,147.9,151.1,146.3z M108.6,208.1c-6.6,0-13.1-1.8-18.7-5.3c-9.7-6-16.1-16.3-17-27.7c-0.1-0.9-0.1-1.8-0.1-2.9 c0-5.7,1.3-11.1,3.8-16.1c0.5-0.9,0.9-1.8,1.5-2.6c0.1-0.1,0.1-0.2,0.2-0.3c6.6-10.6,18-16.9,30.4-16.9c3.2,0,6.4,0.4,9.5,1.3 c8.7,2.4,16.1,7.9,20.9,15.6c0,0.1,0.1,0.2,0.2,0.3c0.7,1.1,1.4,2.4,2,3.7c2.2,4.7,3.3,9.7,3.3,15 C144.4,192,128.3,208.1,108.6,208.1z"/> <path class="st0" d="M385.9,270.6c4.5,3.1,9.5,5.1,15,5.7v4.5c0,1.8,1.5,3.1,3.2,3.1c1.8,0,3.2-1.4,3.2-3.1v-4.4 c9.3-0.9,15.6-6.2,15.6-14.3c0-2.4-0.5-4.5-1.4-6.3c-2.1-4.1-6.8-6.8-14.5-8.7v-14c2.5,0.6,5,1.7,7.5,3.2c0.7,0.4,1.5,0.7,2.2,0.7 c2.3,0,4.1-1.8,4.1-4c0-1.8-1-2.8-2.2-3.5c-3.4-2.1-7-3.5-11.3-4v-1.6c0-1.8-1.4-3.1-3.2-3.1c-1.8,0-3.2,1.4-3.2,3.1v1.5 c-2.9,0.2-5.5,0.9-7.7,2c-2.7,1.4-4.9,3.3-6.2,5.7c-1,1.8-1.5,3.9-1.5,6.2c0,3.4,0.8,6,2.5,8.2c2.5,3.2,6.8,5.3,13.2,6.9v14.4 c-4-0.7-7.4-2.4-10.8-4.9c-0.7-0.5-1.5-0.8-2.4-0.8c-2.3,0-4,1.8-4,4C384,268.7,384.7,269.8,385.9,270.6z M407,255.8 c0.1,0,0.2,0.1,0.4,0.1c5.3,1.7,6.9,3.7,6.9,6.8c0,3.5-2.6,5.8-7.2,6.4V255.8z M398.3,244.5C398.3,244.5,398.3,244.5,398.3,244.5 c-3.2-1.5-4.1-3.2-4.1-5.7c0-3.2,2.3-5.7,7-6.1v13C400.1,245.2,399.1,244.9,398.3,244.5z"/> <path class="st0" d="M112.2,167.1v-14c2.5,0.6,5,1.7,7.5,3.2c0.7,0.4,1.5,0.7,2.2,0.7c2.3,0,4.1-1.8,4.1-4c0-1.8-1-2.8-2.2-3.5 c-3.4-2.1-7-3.5-11.3-4v-1.6c0-1.8-1.4-3.1-3.2-3.1c-1.8,0-3.2,1.4-3.2,3.1v1.5c-2.9,0.2-5.5,0.9-7.7,2c-2.7,1.4-4.9,3.3-6.2,5.7 c-1,1.8-1.5,3.9-1.5,6.2c0,3.4,0.8,6,2.5,8.2c2.5,3.2,6.8,5.3,13.2,6.9v14.4c-4-0.7-7.4-2.4-10.8-4.9c-0.7-0.5-1.5-0.8-2.4-0.8 c-2.3,0-4,1.8-4,4c0,1.5,0.7,2.7,2,3.5c4.5,3.1,9.5,5.1,15,5.7v4.5c0,1.8,1.5,3.1,3.2,3.1c1.8,0,3.2-1.4,3.2-3.1v-4.4 c9.3-0.9,15.6-6.2,15.6-14.3c0-2.4-0.5-4.5-1.4-6.3C124.5,171.7,119.9,169,112.2,167.1z M106.4,165.5c-1.1-0.4-2.1-0.7-2.9-1.1 c0,0,0,0,0,0c-3.2-1.5-4.1-3.2-4.1-5.7c0-3.2,2.3-5.7,7-6.1V165.5z M112.2,189v-13.3c0.1,0,0.2,0.1,0.4,0.1 c5.3,1.7,6.9,3.7,6.9,6.8C119.4,186.2,116.8,188.5,112.2,189z"/> <path class="st0" d="M233.1,108.3c4.5,3.1,9.5,5.1,15,5.7v4.5c0,1.8,1.5,3.1,3.2,3.1c1.8,0,3.2-1.4,3.2-3.1v-4.4 c9.3-0.9,15.6-6.2,15.6-14.3c0-2.4-0.5-4.5-1.4-6.3c-2.1-4.1-6.8-6.8-14.5-8.7v-14c2.5,0.6,5,1.7,7.5,3.2c0.7,0.4,1.5,0.7,2.2,0.7 c2.3,0,4.1-1.8,4.1-4c0-1.8-1-2.8-2.2-3.5c-3.4-2.1-7-3.5-11.3-4v-1.6c0-1.8-1.4-3.1-3.2-3.1c-1.8,0-3.2,1.4-3.2,3.1V63 c-2.9,0.2-5.5,0.9-7.7,2c-2.7,1.4-4.9,3.3-6.2,5.7c-1,1.8-1.5,3.9-1.5,6.2c0,3.4,0.8,6,2.5,8.2c2.5,3.2,6.8,5.3,13.2,6.9v14.4 c-4-0.7-7.4-2.4-10.8-4.9c-0.7-0.5-1.5-0.8-2.4-0.8c-2.3,0-4,1.8-4,4C231.1,106.4,231.9,107.5,233.1,108.3z M254.2,93.5 c0.1,0,0.2,0.1,0.4,0.1c5.3,1.7,6.9,3.7,6.9,6.8c0,3.5-2.6,5.8-7.2,6.4V93.5z M245.5,82.2C245.5,82.2,245.5,82.2,245.5,82.2 c-3.2-1.5-4.1-3.2-4.1-5.7c0-3.2,2.3-5.7,7-6.1v13C247.3,82.9,246.3,82.6,245.5,82.2z"/> </g> </g>
</svg>