<!DOCTYPE svg PUBLIC "-//W3C//DTD SVG 1.1//EN" "http://www.w3.org/Graphics/SVG/1.1/DTD/svg11.dtd">
<!-- Uploaded to: SVG Repo, www.svgrepo.com, Transformed by: SVG Repo Mixer Tools -->
<svg version="1.1" id="_x32_" xmlns="http://www.w3.org/2000/svg" xmlns:xlink="http://www.w3.org/1999/xlink" width="800px" height="800px" viewBox="0 0 512.00 512.00" xml:space="preserve" fill="#000000">
<g id="SVGRepo_bgCarrier" stroke-width="0"/>
<g id="SVGRepo_tracerCarrier" stroke-linecap="round" stroke-linejoin="round"/>
<g id="SVGRepo_iconCarrier"> <style type="text/css">  .st0{fill:#ffffff;}  </style> <g> <path class="st0" d="M491.961,189.563c-3.516-1.313-7.422,0.469-8.734,3.969c-1.922,5.063-4.063,9.219-6.313,12.547 c-1.938,2.891-3.969,5.156-5.984,6.922c0-0.172,0.016-0.375,0.016-0.578c0-5.047-0.688-9.547-1.984-13.516 c-1.922-5.938-5.328-10.594-9.578-13.656c-4.234-3.094-9.188-4.5-13.906-4.5c-5.188,0-10.234,1.625-14.391,4.656 c-2.063,1.563-3.906,3.438-5.375,5.719c-1.453,2.219-2.516,4.813-3.031,7.625c-0.234,1.281-0.344,2.594-0.344,3.891 c0,4.109,1.141,8.047,3.016,11.578c2.782,5.281,7.141,9.734,12.485,12.969c3.109,1.906,6.594,3.375,10.281,4.281 c-0.219,0.172-0.422,0.375-0.656,0.563c-5.594,4.625-13.328,8.5-21.5,11.172c-19-26.25-46.922-45.766-79.281-57.047v39.453H207.351 v-37.484c-11.109,4.063-22.125,8.938-32.891,14.938c-10.516,5.859-19.938,11.922-28.531,18.016 c-23.188-27.922-81.563-32.578-74.063-10.859c6.828,19.656,16.844,41.25,21.516,54.031c-17.547,14.766-33.766,26.234-55.094,30.188 c-19.469,3.625-25.25,8.813-21.594,27.813l8.047,63.688c0,0,22.703,13.125,30.75,17.563c17.75,9.813,52.672,31.219,104.297,47.094 L179.367,512h48.969v-46.25c19.547,2.688,40.594,4.297,63.141,4.297c11.719,0,22.734-0.797,33.094-2.266V512h48.953l22.766-71.344 c54.125-38.25,67.485-106.688,48.36-161.703c-2.953-8.453-6.688-16.484-11.078-24.047c7.297-2.688,14.297-6.219,20.313-10.719 c4.5-3.344,8.469-7.25,11.469-11.828c0.297-0.453,0.594-0.922,0.859-1.391c0.469-0.156,0.953-0.266,1.438-0.438 c5.641-2,11.109-5.641,15.922-10.969c4.797-5.344,8.984-12.375,12.328-21.25C497.227,194.781,495.445,190.906,491.961,189.563z M98.554,328.234c-7.219,0-13.063-5.859-13.063-13.063c0-7.219,5.844-13.063,13.063-13.063s13.063,5.844,13.063,13.063 C111.617,322.375,105.773,328.234,98.554,328.234z M457.273,215.781c-0.078,1.063-0.266,2.094-0.531,3.141c-0.109,0-0.25,0-0.375,0 c-2.719,0-5.422-0.547-7.922-1.531c-3.75-1.484-7.047-3.953-9.281-6.703c-1.094-1.359-1.938-2.813-2.469-4.188 c-0.547-1.375-0.813-2.688-0.813-3.859c0-0.516,0.063-1.016,0.141-1.453c0.188-1.031,0.531-1.875,1.078-2.719 c0.766-1.188,1.938-2.219,3.422-3c1.484-0.719,3.234-1.156,4.953-1.156c1.406,0,2.797,0.25,4.094,0.813 c0.953,0.438,1.875,1,2.734,1.781c1.297,1.188,2.516,2.875,3.484,5.375c0.938,2.484,1.594,5.828,1.594,10.141 C457.383,213.469,457.352,214.594,457.273,215.781z"/> <polygon class="st0" points="294.257,76.156 304.82,59.688 303.195,59.688 292.664,59.688 291.054,59.688 276.695,82.031 262.382,59.688 260.757,59.688 250.226,59.688 248.617,59.688 259.195,76.156 246.476,76.156 246.476,78.656 246.476,86.281 246.476,88.781 267.304,88.781 269.554,92.281 269.554,100.625 246.476,100.625 246.476,100.625 246.476,111.438 246.476,113.125 269.554,113.125 269.554,130.344 283.898,130.344 283.898,113.125 306.96,113.125 306.96,111.438 306.96,100.625 306.96,100.625 283.898,100.625 283.898,92.25 286.132,88.781 306.96,88.781 306.96,86.281 306.96,78.656 306.96,76.156 "/> <path class="st0" d="M276.726,0c-52.484,0-95.031,42.547-95.031,95.031c0,52.469,42.547,95,95.031,95s95.016-42.531,95.016-95 C371.742,42.547,329.21,0,276.726,0z M276.726,175.188c-44.203,0-80.172-35.969-80.172-80.156 c0-44.219,35.969-80.188,80.172-80.188s80.172,35.969,80.172,80.188C356.898,139.219,320.929,175.188,276.726,175.188z"/> <path class="st0" d="M278.945,31.156h0.094c1.594,0,2.906-1.266,2.969-2.875c0.047-1.656-1.219-3-2.859-3.063h-0.313l0,0h-0.031 l0,0h-0.047l0,0h-0.016h-0.016h-0.016h-0.047l0,0h-0.031l0,0c-0.438-0.031-0.875-0.031-1.328-0.031h-0.063h-0.016h-0.031l0,0 h-0.031h-0.016h-0.016l-0.016-0.031h-0.031h-0.016h-0.016h-0.031l0,0h-0.031h-0.016h-0.031l0,0h-0.031l0,0h-0.031h-0.016h-0.031 l0,0h-0.031h-0.016h-0.016h-0.016h-0.031h-0.047l0,0h-0.016h-0.016h-0.016h-0.031h-0.016l0,0h-0.047l0,0h-0.016h-0.016h-0.031l0,0 h-0.031l0,0h-0.047l0,0h-0.031l0,0h-0.016h-0.031l-0.016,0.031l0,0h-0.047l0,0h-0.031l0,0h-0.031h-0.016h-0.016l0,0h-0.047l0,0 h-0.016h-0.016h-0.031h-0.016h-0.016l0,0h-0.047l0,0h-0.016h-0.016h-0.031h-0.016h-0.016l0,0h-0.047l0,0h-0.016h-0.016h-0.031 h-0.016h-0.016l0,0h-0.047h-0.016l0,0h-0.016h-0.031h-0.016h-0.016l0,0h-0.047l0,0h-0.016h-0.016h-0.031l0,0h-0.031l0,0h-0.047l0,0 h-0.016h-0.016h-0.031l0,0h-0.031l0,0h-0.047l0,0h-0.016h-0.016h-0.031h-0.016h-0.016l0,0h-0.047l0,0h-0.016h-0.016h-0.031h-0.016 h-0.016h-0.016h-0.031l0,0h-0.016h-0.016h-0.016h-0.016h-0.031h-0.016l-0.031,0.031l0,0h-0.031l0,0h-0.016h-0.016h-0.031l0,0 h-0.047l0,0h-0.031l0,0h-0.016h-0.031h-0.016l0,0h-0.047l0,0h-0.031l0,0h-0.031h-0.016h-0.016l0,0h-0.047l0,0h-0.016h-0.016h-0.031 h-0.016h-0.016l0,0h-0.031h-0.016h-0.016h-0.016h-0.016h-0.016h-0.031l0,0h-0.031h-0.016h-0.031l0,0h-0.016h-0.016h-0.031l0,0 h-0.031h-0.016h-0.031l0,0h-0.016h-0.031h-0.016l0,0h-0.031l-0.016,0.031h-0.016h-0.016h-0.031h-0.016l0,0h-0.016h-0.031l0,0 h-0.031l0,0h-0.047l0,0h-0.031l0,0h-0.031l0,0h-0.031l0,0h-0.031h-0.016h-0.031l0,0h-0.031l0,0h-0.031l0,0h-0.031h-0.016h-0.016 l0,0h-0.047l0,0h-0.031h-0.016h-0.016h-0.016h-0.016h-0.016h-0.063l0,0h-0.047l0,0h-0.031l-0.063,0.031h-0.016h-0.031l0,0h-0.016 h-0.016h-0.047h-0.016h-0.031l0,0h-0.031h-0.016h-0.047h-0.016h-0.031l0,0h-0.047h-0.047h-0.016h-0.031l0,0h-0.031l0,0h-0.078l0,0 h-0.031l0,0l-0.031,0.016l0,0l-0.078,0.016l0,0h-0.031l0,0h-0.094l0,0h-0.047l0,0h-0.031l0,0h-0.063l-0.031,0.031h-0.016h-0.125 h-0.016c-1.344,0.078-2.688,0.219-4.016,0.406c-1.625,0.188-2.766,1.656-2.578,3.297c0.203,1.516,1.469,2.609,2.953,2.609 l0.375-0.031c2.672-0.344,5.406-0.5,8.141-0.5C277.46,31.125,278.21,31.125,278.945,31.156z"/> <path class="st0" d="M250.523,33.391c-0.5-1.063-1.578-1.672-2.688-1.672c-0.422,0-0.859,0.094-1.266,0.281 c-1.016,0.469-2.016,1-3,1.516l-0.172,0.109h-0.031l-0.047,0.047l0,0l-0.031,0.016h-0.016l-0.063,0.031l0,0l-0.016,0.031h-0.016 h-0.031l0,0h-0.016l-0.016,0.031l-0.031,0.016l0,0h-0.016l-0.016,0.016h-0.016h-0.016l-0.016,0.031h-0.016h-0.016h-0.016 l-0.016,0.031h-0.016h-0.016h-0.016l-0.016,0.031h-0.016h-0.016h-0.016v0.031h-0.031l0,0l-0.016,0.031h-0.016h-0.031h-0.016 L242.71,34l0,0h-0.016l-0.016,0.031h-0.031l0,0l-0.016,0.031h-0.016h-0.016l-0.016,0.016l-0.047,0.016h-0.016h-0.016l0,0 l-0.078,0.063h-0.016l0,0l-0.094,0.063c-1.188,0.688-2.375,1.391-3.531,2.141c-1.359,0.891-1.766,2.719-0.859,4.109 c0.563,0.859,1.516,1.344,2.484,1.344c0.563,0,1.109-0.156,1.609-0.484c2.281-1.453,4.672-2.813,7.125-3.984 C250.601,36.656,251.242,34.875,250.523,33.391z"/> <path class="st0" d="M255.632,155.375c-2.547-0.875-5.063-1.938-7.5-3.156c-0.422-0.219-0.875-0.344-1.328-0.344 c-1.078,0-2.125,0.594-2.656,1.656c-0.734,1.469-0.141,3.25,1.328,3.969c0.906,0.469,1.844,0.906,2.766,1.313l0.094,0.063l0,0 l0.078,0.031l0,0l0.047,0.031h0.016h0.031h0.016l0,0l0.016,0.031l0,0h0.047l0,0l0.031,0.031l0,0h0.031h0.016h0.016l0.031,0.031 h0.016h0.016l0,0l0.031,0.031l0,0h0.031h0.016v0.031h0.031h0.016l0.016,0.031h0.016h0.016h0.016h0.016l0.016,0.031l0,0h0.031h0.031 l0,0l0.016,0.031h0.016h0.016h0.016h0.016l0.031,0.031h0.016h0.016l0,0l0.016,0.031h0.031h0.016l0,0h0.016l0.016,0.031h0.016h0.063 h0.016h0.016l0,0l0.063,0.063l0,0h0.016h0.016l0.031,0.031l0,0h0.031h0.016l0.016,0.031l0,0h0.031l0,0l0.078,0.031l0,0l0.016,0.031 h0.016h0.063l0,0l0.016,0.031l0,0l0.078,0.031l0,0h0.016h0.016l0.063,0.031h0.031l0,0l0.094,0.031v0.031l0.109,0.031l0,0h0.016 h0.016l0.047,0.031l0,0h0.031l0,0l0.078,0.031l0,0l0.016,0.031h0.016h0.016h0.016l0.047,0.031h0.047l0,0l0.063,0.063h0.031l0,0 h0.078l0,0l0.016,0.031h0.016l0.063,0.031h0.016h0.016l0.063,0.031h0.016v0.031h0.016h0.031l0,0h0.063l0,0h0.031V160l0.063,0.031 h0.016l0,0l0.016,0.031h0.031l0,0h0.047l0,0h0.016h0.016h0.016l0,0l0.047,0.031l0,0l0.016,0.031h0.016h0.016h0.016h0.031v0.031 h0.031h0.016h0.016v0.031h0.016h0.031h0.016h0.016l0,0l0.031,0.031h0.016h0.016v0.031h0.047l0,0h0.016l0,0h0.047h0.016h0.016v0.031 h0.016h0.031l0.016,0.031l0,0h0.016h0.031l0.016,0.031l0,0h0.031h0.047l0,0h0.016l0,0l0.047,0.031l0,0h0.016l0,0h0.047h0.016v0.031 h0.016h0.063l0,0l0.031,0.063l0,0c0.5,0.156,0.984,0.344,1.484,0.5c0.313,0.125,0.656,0.188,0.984,0.188 c1.219,0,2.375-0.781,2.797-2C258.007,157.625,257.179,155.906,255.632,155.375z"/> <path class="st0" d="M226.242,134.25c-0.563-0.75-1.438-1.156-2.328-1.156c-0.641,0-1.297,0.219-1.828,0.625 c-1.281,1.031-1.516,2.875-0.531,4.188c0.547,0.688,1.094,1.375,1.672,2.031l0,0l0.047,0.063l0.016,0.031h0.016l0.031,0.031v0.031 h0.016h0.016l0.016,0.031l0,0l0.016,0.031h0.016l0.016,0.031h0.016l0,0l0.016,0.031l0,0l0.016,0.031h0.016l0.016,0.031l0,0 l0.016,0.031h0.016h0.016v0.031h0.031v0.031h0.016l0,0h0.016v0.031l0.016,0.031h0.016l0.031,0.031h0.016l0.031,0.031l0,0 l0.031,0.063l0.031,0.031c1.156,1.375,2.406,2.688,3.703,3.969c0.563,0.563,1.328,0.875,2.078,0.875s1.531-0.313,2.109-0.875 c1.156-1.188,1.156-3.063-0.016-4.219C229.742,138.438,227.929,136.375,226.242,134.25z"/> <path class="st0" d="M210.21,91.031c1.484,0,2.781-1.125,2.938-2.688c0.281-2.688,0.734-5.375,1.359-8 c0.359-1.625-0.609-3.188-2.219-3.594l-0.688-0.063c-1.344,0-2.563,0.906-2.875,2.281c-0.688,2.875-1.172,5.781-1.469,8.781 c-0.188,1.625,1,3.094,2.641,3.25L210.21,91.031z"/> <path class="st0" d="M222.242,61.578c1.422-2.297,3.016-4.516,4.703-6.641c1.031-1.281,0.828-3.156-0.438-4.188 c-0.547-0.438-1.219-0.656-1.859-0.656c-0.859,0-1.734,0.406-2.313,1.125c-0.484,0.563-0.969,1.188-1.438,1.813l-0.031,0.031 l-0.016,0.031l0,0l-0.063,0.094l0,0l-0.063,0.094l0,0l-0.063,0.063h-0.016l-0.047,0.094l0,0l-0.141,0.188 c-0.781,1.031-1.531,2.125-2.25,3.234l0,0l-0.078,0.078l0,0v0.031l0,0l-0.031,0.063l0,0v0.031h-0.016h-0.016l0,0l-0.031,0.047 v0.016l0,0l-0.016,0.016h-0.016l-0.016,0.047l0,0l-0.016,0.031h-0.016v0.031h-0.016h-0.016v0.031v0.031h-0.016h-0.016v0.031 l-0.016,0.031l0,0l-0.016,0.016l-0.016,0.016l0,0l-0.016,0.016v0.016l-0.016,0.031h-0.016v0.016V57.5h-0.016l0,0l-0.047,0.094l0,0 c-0.188,0.281-0.359,0.578-0.563,0.875c-0.844,1.406-0.422,3.219,0.984,4.094c0.469,0.281,1.016,0.438,1.531,0.438 C220.726,63,221.679,62.516,222.242,61.578z"/> <path class="st0" d="M214.257,108.656c-0.297-1.406-1.531-2.344-2.891-2.344l-0.641,0.063c-1.594,0.344-2.609,1.938-2.266,3.5 c0.625,2.969,1.438,5.813,2.438,8.594c0.422,1.188,1.578,1.969,2.797,1.969c0.328,0,0.672-0.063,1-0.188 c1.531-0.563,2.359-2.219,1.797-3.781C215.585,113.906,214.835,111.281,214.257,108.656z"/> <path class="st0" d="M312.054,148.844c-0.547,0-1.078,0.156-1.563,0.469c-2.313,1.406-4.734,2.719-7.188,3.844 c-1.5,0.688-2.156,2.438-1.453,3.938c0.5,1.094,1.563,1.75,2.688,1.75c0.406,0,0.844-0.094,1.234-0.281 c1.656-0.75,3.25-1.594,4.813-2.438l0.047-0.031h0.016l0.047-0.031l0,0h0.031l0,0l0.063-0.031l0,0l0.016-0.031l0,0h0.047l0,0 l0.016-0.031l0,0l0.047-0.031l0,0h0.016l0,0l0.047-0.031l0,0h0.016h0.016v-0.031h0.016h0.031h0.016v-0.031h0.016h0.016l0.031-0.031 l0,0h0.016h0.016l0.031-0.031l0,0h0.016l0,0l0.063-0.031l0,0v-0.031h0.031l0,0l0.063-0.031l0,0h0.047 c0.734-0.438,1.484-0.906,2.219-1.344c1.375-0.906,1.797-2.719,0.938-4.094C314.007,149.344,313.039,148.844,312.054,148.844z"/> <path class="st0" d="M334.726,128.5c-0.516-0.313-1.063-0.5-1.625-0.5c-0.969,0-1.922,0.5-2.484,1.406 c-1.469,2.25-3.078,4.5-4.828,6.563c-1.047,1.25-0.891,3.125,0.375,4.188c0.547,0.469,1.234,0.688,1.906,0.688 c0.844,0,1.703-0.375,2.281-1.063c1.531-1.844,2.984-3.75,4.313-5.75l0,0l0.016-0.031l0,0l0.063-0.063l0,0v-0.031l0,0l0.016-0.031 l0,0l0.031-0.031h0.016l0,0v-0.031l0.016-0.031l0,0h0.031v-0.031h0.016l0,0l0.016-0.031l0,0l0.016-0.031l0,0l0.031-0.031h0.016 v-0.031l0,0l0.016-0.031l0,0l0.016-0.031h0.016l0.016-0.031l0.016-0.031v-0.031h0.016h0.031l0.016-0.063l0,0l0.016-0.031l0,0 l0.063-0.063v-0.031l0.453-0.688C336.492,131.219,336.085,129.375,334.726,128.5z"/> <path class="st0" d="M342.32,84.875l0.578-0.031c1.609-0.344,2.656-1.906,2.328-3.5l-0.078-0.375l0,0v-0.031l0,0l-0.016-0.063l0,0 v-0.031v-0.031l-0.016-0.031V80.75l0,0h-0.016v-0.031v-0.031l-0.016-0.031h-0.016v-0.031l0,0v-0.031v-0.031v-0.031l0,0V80.5l0,0 h-0.016v-0.031l0,0v-0.031l-0.016-0.031l0,0v-0.031h-0.016v-0.031l0,0v-0.031v-0.031l-0.016-0.031l0,0l0,0h-0.016v-0.031l0,0 v-0.063l0,0l-0.016-0.031l0,0v-0.031l0,0h-0.016l-0.016-0.063l0,0V80l0,0l-0.016-0.063l0,0v-0.031l0,0l-0.016-0.094h-0.016V79.75 l-0.016-0.063l0,0l-0.016-0.031l0,0l-0.016-0.094l0,0l-0.031-0.156h-0.016c-0.344-1.5-0.734-3-1.188-4.5l-0.031-0.125l-0.047-0.219 h-0.016l-0.031-0.109l0,0l-0.031-0.109v-0.016l-0.016-0.016l0,0l-0.031-0.094l-0.031-0.109l0,0l-0.016-0.016l0,0l-0.016-0.078V74 v-0.031h-0.016l-0.016-0.063l0,0v-0.016v-0.016l-0.016-0.031l0,0v-0.031l-0.031-0.031l0,0V73.75l-0.016-0.016v-0.016v-0.016 l-0.016-0.016v-0.016l-0.016-0.016l0,0v-0.047l0,0l-0.016-0.047l0,0l0,0l-0.016-0.016v-0.016l0,0v-0.047h-0.016v-0.047l0,0l0,0 v-0.031h-0.016v-0.031h-0.016l-0.016-0.031v-0.031l0,0v-0.031h-0.016v-0.016l-0.016-0.016l0,0v-0.047v-0.016l0,0l-0.016-0.016 v-0.016l-0.016-0.031l-0.016-0.031l0,0l0,0v-0.031l-0.016-0.031l0,0V73l0,0h-0.016v-0.031h-0.016v-0.047l-0.016-0.047h-0.016 v-0.031l0,0l0,0v-0.031l-0.016-0.063l0,0l0,0l0,0l-0.031-0.031c-0.422-1.219-1.578-2.016-2.813-2.016 c-0.313,0-0.625,0.063-0.938,0.172c-1.563,0.516-2.391,2.188-1.859,3.75c0.844,2.563,1.563,5.188,2.094,7.875 C339.695,83.906,340.929,84.875,342.32,84.875z"/> <path class="st0" d="M284.085,158.531l-0.328,0.031c-2.313,0.25-4.672,0.375-7.031,0.375c-0.359,0-0.75,0-1.109,0h-0.063 c-1.625,0-2.938,1.281-2.953,2.906c-0.047,1.625,1.266,2.969,2.891,3c0.328,0.031,0.625,0.031,0.953,0.031l0,0h0.016h0.016h0.047 l0,0h0.016h0.016h0.031h0.016l0,0h0.031h0.016h0.031l0,0h0.047h0.016h0.016h0.016h0.016h0.016h0.016h0.016h0.016h0.016h0.016h0.016 h0.016l0,0h0.016h0.016h0.031l0,0h0.031h0.016l0,0h0.031l0,0h0.016h0.016h0.063h0.016h0.016l0,0h0.016h0.031h0.016l0,0h0.016h0.016 h0.016h0.016h0.016h0.016h0.016h0.016h0.016h0.016h0.016l0,0h0.031l0,0h0.031l0,0h0.063h0.016h0.016h0.016h0.016l0,0h0.016h0.031 h0.016h0.016h0.016l0,0h0.031l0,0h0.016h0.016h0.016h0.016h0.016h0.016h0.031l0,0l0.078-0.031l0,0h0.031l0,0h0.031h0.016h0.016 h0.016h0.031l0,0h0.016l0,0h0.031l0,0h0.031l0,0h0.031l0,0h0.031l0,0h0.031l0,0h0.125h0.031l0,0h0.016l0,0h0.031h0.016h0.016l0,0 h0.047l0,0h0.016l0,0h0.031h0.016h0.016l0,0h0.234h0.047h0.016c1.875-0.063,3.688-0.188,5.516-0.406 c1.609-0.156,2.797-1.625,2.625-3.25C286.867,159.656,285.585,158.531,284.085,158.531z"/> <path class="st0" d="M343.476,100.188h-0.375c-1.469,0-2.766,1.094-2.938,2.594c-0.328,2.688-0.813,5.375-1.484,8 c-0.406,1.594,0.547,3.219,2.141,3.625l0.734,0.094c1.328,0,2.531-0.906,2.875-2.25c0.141-0.594,0.297-1.188,0.438-1.813l0,0 v-0.031l0,0l0.016-0.063l0,0v-0.031l0,0h0.016v-0.031l0.016-0.031v-0.031l0,0l0,0v-0.031v-0.031h0.016l0,0v-0.031v-0.031l0,0 v-0.031l0,0l0.016-0.031l0,0L344.96,110l0,0l0,0l0.016-0.031v-0.031l0,0l0.016-0.063l0,0v-0.063l0,0l0.016-0.031l0.016-0.063l0,0 l0,0l0,0l0.031-0.125c0.422-2,0.766-4.031,1-6.094C346.257,101.875,345.101,100.375,343.476,100.188z"/> <path class="st0" d="M307.664,38.688c1.063,0,2.109-0.563,2.641-1.594c0.75-1.453,0.203-3.25-1.266-4.016 c-1.797-0.953-3.641-1.813-5.547-2.578l0,0l-0.094-0.063l0,0h-0.016l0,0l-0.078-0.031h-0.031l0,0l-0.063-0.031h-0.031l0,0 l-0.078-0.063l0,0l-0.109-0.031h-0.016l-0.016-0.016l-0.063-0.016l0,0l-0.047-0.016l0,0l-0.063-0.047l0,0l-0.031-0.016 l-0.063-0.016l0,0l-0.031-0.031l0,0l-0.094-0.016l-0.094-0.047l0,0c-0.531-0.188-1.047-0.391-1.578-0.594 c-0.344-0.125-0.672-0.188-1.016-0.188c-1.219,0-2.359,0.75-2.781,1.969c-0.578,1.5,0.203,3.219,1.75,3.813 c2.531,0.906,5.031,2.031,7.438,3.281C306.726,38.563,307.179,38.688,307.664,38.688z"/> <path class="st0" d="M330.242,57.875c0.609,0,1.234-0.219,1.781-0.625c1.297-0.969,1.563-2.828,0.578-4.156 c-1-1.313-2.047-2.594-3.125-3.844l0,0l-0.047-0.063l0,0l-0.016-0.016l0,0l-0.047-0.047l-0.016-0.031l-0.016-0.016l0,0 l-0.016-0.016h-0.016l-0.016-0.047l0,0L329.273,49l0,0l-0.031-0.031l0,0l-0.016-0.031l0,0h-0.016v-0.031h-0.031l-0.016-0.016 l-0.016-0.016l0,0l-0.016-0.031l0,0l-0.016-0.031h-0.016h-0.016v-0.031h-0.016l0,0l-0.031-0.031l0,0l-0.031-0.031v-0.031h-0.016 v-0.016h-0.016l-0.016-0.016v-0.016l-0.031-0.016l0,0l-0.016-0.031l0,0l-0.047-0.063l0,0h-0.016l-0.016-0.016l-0.047-0.047l0,0 l-0.016-0.016h-0.016l-0.031-0.047v-0.031h-0.016l0,0l-0.063-0.063v-0.016l-0.016-0.016h-0.016l-0.031-0.047l0,0l-0.016-0.016l0,0 l-0.078-0.094l0,0l-0.063-0.063l0,0l-0.141-0.172h-0.016c-0.469-0.516-0.969-1.047-1.453-1.547 c-0.594-0.594-1.359-0.891-2.141-0.891c-0.75,0-1.469,0.281-2.063,0.828c-1.172,1.156-1.219,3.031-0.063,4.219 c1.891,1.938,3.672,4.031,5.297,6.188C328.429,57.469,329.32,57.875,330.242,57.875z"/> </g> </g>
</svg>