<?xml version="1.0" encoding="utf-8"?><!-- Uploaded to: SVG Repo, www.svgrepo.com, Generator: SVG Repo Mixer Tools -->
<svg fill="#000000" width="800px" height="800px" viewBox="0 0 24 24" xmlns="http://www.w3.org/2000/svg">
  <path d="M15,6 C16.5976809,6 17.9036609,7.24891996 17.9949073,8.82372721 L18,9 L18,19 C18,20.5976809 16.75108,21.9036609 15.1762728,21.9949073 L15,22 L5,22 C3.40231912,22 2.09633912,20.75108 2.00509269,19.1762728 L2,19 L2,9 C2,7.40231912 3.24891996,6.09633912 4.82372721,6.00509269 L5,6 L15,6 Z M16,14.762 L12.7682213,18.6401844 C12.418662,19.0596556 11.8047124,19.1163346 11.3858753,18.7893779 L11.2928932,18.7071068 L9,16.415 L5.414,20 L15,20 C15.5128358,20 15.9355072,19.6139598 15.9932723,19.1166211 L16,19 L16,14.762 Z M19,2 C20.5976809,2 21.9036609,3.24891996 21.9949073,4.82372721 L22,5 L22,18 C22,18.5522847 21.5522847,19 21,19 C20.4871642,19 20.0644928,18.6139598 20.0067277,18.1166211 L20,18 L20,5 C20,4.48716416 19.6139598,4.06449284 19.1166211,4.00672773 L19,4 L6,4 C5.44771525,4 5,3.55228475 5,3 C5,2.48716416 5.38604019,2.06449284 5.88337887,2.00672773 L6,2 L19,2 Z M15,8 L5,8 C4.48716416,8 4.06449284,8.38604019 4.00672773,8.88337887 L4,9 L4,18.584 L8.29289322,14.2928932 C8.65337718,13.9324093 9.22060824,13.9046797 9.61289944,14.2097046 L9.70710678,14.2928932 L11.932,16.517 L16,11.636 L16,9 C16,8.48716416 15.6139598,8.06449284 15.1166211,8.00672773 L15,8 Z M6.5,9 C7.32842712,9 8,9.67157288 8,10.5 C8,11.3284271 7.32842712,12 6.5,12 C5.67157288,12 5,11.3284271 5,10.5 C5,9.67157288 5.67157288,9 6.5,9 Z"/>
</svg>